<?xml version="1.0" standalone="no"?>
<!DOCTYPE svg PUBLIC "-//W3C//DTD SVG 1.1//EN" "http://www.w3.org/Graphics/SVG/1.1/DTD/svg11.dtd" >
<!--
2013-9-30: Created.
-->
<svg>
<metadata>
Created by iconfont
</metadata>
<defs>

<font id="iconfont" horiz-adv-x="1024" >
  <font-face
    font-family="iconfont"
    font-weight="500"
    font-stretch="normal"
    units-per-em="1024"
    ascent="896"
    descent="-128"
  />
    <missing-glyph />
    
    <glyph glyph-name="bianji" unicode="&#58887;" d="M783.70558 524.926796 657.810223 650.816994l62.973774 62.946634c20.866068 20.837584 54.651907 20.837584 75.516952 0l50.351798-50.350758c20.866068-20.865213 20.866068-54.702879 0-75.56707L783.70558 524.926796zM417.966076 159.202277 292.069696 285.092475l342.253664 339.564719 125.894333-125.891222L417.966076 159.202277zM190.931177 55.958868l76.597607 204.593701 124.841308-124.864846L190.931177 55.958868zM756.299293 12.933959c17.622055 0 31.891621-14.270005 31.891621-31.892361 0-17.594727-14.269566-31.864732-31.891621-31.864732L192.418102-50.823134c-17.595448 0-31.866037 14.268982-31.866037 31.864732 0 17.622356 14.27059 31.892361 31.866037 31.892361L756.299293 12.933959z"  horiz-adv-x="1024" />

    
    <glyph glyph-name="mingpian" unicode="&#58922;" d="M470.055385 250.769231c0-8.270769 0-7.719385 0-15.950769 0-41.668923-79.753846-51.121231-154.624-51.121231-74.712615 0-155.490462 9.452308-155.490462 51.121231 0 8.231385 0 7.68 0 15.950769 0 30.562462 58.958769 55.217231 105.905231 72.192 3.387077 1.260308 19.613538 10.082462 10.594462 33.870769-23.276308 23.788308-38.872615 49.270154-38.872615 87.158154 0 58.092308 32.571077 89.836308 77.469538 89.836308 44.859077 0 76.996923-31.783385 76.996923-89.836308 0-37.730462-14.729846-63.094154-37.888-86.921846l0.157538 0c-8.900923-26.978462 5.316923-33.398154 7.561846-34.107077C411.136 306.656 470.055385 282.276923 470.055385 250.769231zM1024 63.692308 1024 536.307692c0 86.882462-70.656 157.538462-157.538462 157.538462L157.538462 693.846154C70.656 693.846154 0 623.190154 0 536.307692l0-472.615385c0-86.882462 70.656-157.538462 157.538462-157.538462l78.769231 0c21.779692 0 39.384615 17.604923 39.384615 39.384615l0 39.384615 39.384615 0 0-39.384615c0-21.779692 17.604923-39.384615 39.384615-39.384615l315.076923 0c21.779692 0 39.384615 17.604923 39.384615 39.384615l0 39.384615 39.384615 0 0-39.384615c0-21.779692 17.604923-39.384615 39.384615-39.384615l78.769231 0C953.344-93.846154 1024-23.190154 1024 63.692308zM827.076923 24.307692c0 21.779692-17.604923 39.384615-39.384615 39.384615l-118.153846 0c-21.779692 0-39.384615-17.604923-39.384615-39.384615l0-39.384615-236.307692 0 0 39.384615c0 21.779692-17.604923 39.384615-39.384615 39.384615L236.307692 63.692308c-21.779692 0-39.384615-17.604923-39.384615-39.384615l0-39.384615L157.538462-15.076923c-43.441231 0-78.769231 35.328-78.769231 78.769231L78.769231 536.307692c0 43.441231 35.328 78.769231 78.769231 78.769231l708.923077 0c43.441231 0 78.769231-35.328 78.769231-78.769231l0-472.615385c0-43.441231-35.328-78.769231-78.769231-78.769231l-39.384615 0L827.076923 24.307692zM905.649231 496.923077c0 21.779692-17.604923 39.384615-39.384615 39.384615l-314.840615 0c-21.779692 0-39.384615-17.604923-39.384615-39.384615s17.604923-39.384615 39.384615-39.384615l314.840615 0C888.044308 457.538462 905.649231 475.143385 905.649231 496.923077zM853.188923 339.384615c0 21.779692-17.604923 39.384615-39.384615 39.384615l-262.380308 0c-21.779692 0-39.384615-17.604923-39.384615-39.384615s17.604923-39.384615 39.384615-39.384615l262.380308 0C835.584 300 853.188923 317.604923 853.188923 339.384615z"  horiz-adv-x="1024" />

    
    <glyph glyph-name="anniutubiaoxieshang" unicode="&#58930;" d="M944.626743 620.854589l0-326.297554-29.868261 0-75.485205 0 0.098237-32.660864-18.482957 15.33015-20.897959 17.330714-27.14729 0-17.919115 0 0-75.257008 17.919115 0 142.273331-118.002554-0.35918 118.002554 62.120826 0c23.750937 0 43.004443 19.252483 43.004443 43.00342L1019.882728 653.108177c0 23.749914-19.253506 43.004443-43.004443 43.004443l0 0L370.035196 696.11262c-23.750937 0-43.004443-19.253506-43.004443-43.004443l0-116.031667 75.258031 0 0 83.778078L944.626743 620.854589M625.286648 407.591437l0-326.298578L254.729054 81.292859l-27.148313 0-20.895913-17.330714-18.482957-15.331173 0.098237 32.661887-75.486228 0L82.947665 81.292859 82.947665 407.591437 625.286648 407.591437M657.539212 482.849468 50.695101 482.849468c-23.749914 0-43.004443-19.254529-43.004443-43.004443l0-390.803707c0-23.752983 19.253506-43.005466 43.004443-43.005466l62.119803 0-0.358157-118.002554 142.272307 118.002554L657.539212 6.035852c23.750937 0 43.004443 19.252483 43.004443 43.005466L700.543655 439.845025C700.544679 463.594939 681.290149 482.849468 657.539212 482.849468L657.539212 482.849468z"  horiz-adv-x="1024" />

    
    <glyph glyph-name="xiaoxi" unicode="&#58884;" d="M319.798025-68.852902c-6.696516 0-13.352099 2.440585-18.570961 7.131421-8.770757 7.888667-11.589966 20.455891-7.048533 31.340799l31.720446 75.93853c5.287423 11.30651 9.475815 24.943089 9.841136 31.232328-6.859221 10.734482-5.585205 25.173332 3.795443 34.552957 10.843976 10.830673 28.426423 10.830673 39.270399-0.014326 23.437805-23.450085 8.67559-65.431222-2.209318-88.354304l-0.704035-1.694595 126.09486 69.039399c4.093225 2.236947 8.67559 3.415796 13.337773 3.415796 215.60243 0 390.999159 154.586774 390.999159 344.591199 0 176.182628-182.716438 330.724377-390.999159 330.724377-206.655663 0-385.726062-151.829987-391.025765-331.544045-3.009544-102.08912 50.196239-199.649086 145.95314-267.670296 12.498662-8.863878 15.439644-26.188452 6.561439-38.70144-8.892531-12.483312-26.202779-15.439644-38.714743-6.545066C126.941646 203.534835 65.236282 318.189132 68.801481 439.145971 74.956667 648.065188 279.442922 824.574251 515.32421 824.574251c242.035452 0 446.523753-176.881546 446.523753-386.247948 0-218.470757-196.420555-396.61711-439.324794-400.061558L333.136821-65.435059C328.948429-67.727265 324.366064-68.852902 319.798025-68.852902zM586.004993 489.274672 336.146365 489.274672c-7.67275 0-13.880125 6.215562-13.880125 13.881149s6.208399 13.881149 13.880125 13.881149l249.858628 0c7.671727 0 13.880125-6.215562 13.880125-13.881149S593.676719 489.274672 586.004993 489.274672zM697.051111 489.274672l-41.642422 0c-7.671727 0-13.880125 6.215562-13.880125 13.881149s6.208399 13.881149 13.880125 13.881149l41.642422 0c7.67275 0 13.881149-6.215562 13.881149-13.881149S704.723861 489.274672 697.051111 489.274672zM502.718101 350.465233 350.027513 350.465233c-7.67275 0-13.881149 6.215562-13.881149 13.880125 0 7.66661 6.208399 13.880125 13.881149 13.880125l152.690588 0c7.67275 0 13.880125-6.213515 13.880125-13.880125C516.598226 356.680794 510.390851 350.465233 502.718101 350.465233zM586.004993 350.465233l-27.762297 0c-7.67275 0-13.881149 6.215562-13.881149 13.880125 0 7.66661 6.208399 13.880125 13.881149 13.880125l27.762297 0c7.671727 0 13.880125-6.213515 13.880125-13.880125C599.885118 356.680794 593.676719 350.465233 586.004993 350.465233z"  horiz-adv-x="1024" />

    
    <glyph glyph-name="other" unicode="&#58929;" d="M33.792 406.886c-0-0-0-0-0-0 0-51.832 42.018-93.85 93.85-93.85 51.832 0 93.85 42.018 93.85 93.85 0 0 0 0 0 0 0 0 0 0 0 0 0 51.832-42.018 93.85-93.85 93.85-51.832 0-93.85-42.018-93.85-93.85 0-0 0-0 0-0zM403.558 406.886c0-51.832 42.018-93.85 93.85-93.85s93.85 42.018 93.85 93.85c0 51.832-42.018 93.85-93.85 93.85-51.832 0-93.85-42.018-93.85-93.85zM773.325 406.886c0-51.832 42.018-93.85 93.85-93.85s93.85 42.018 93.85 93.85c0 51.832-42.018 93.85-93.85 93.85-51.832 0-93.85-42.018-93.85-93.85z"  horiz-adv-x="1024" />

    
    <glyph glyph-name="iconfontgerenzhongxin" unicode="&#58949;" d="M608.188 338.098 434.715 338.098c-161.213 0-292.327-131.238-292.327-292.602l0-17.361c0-84.354 129.017-84.354 292.327-84.354l173.474 0c156.884 0 292.356 0 292.356 84.354l0 17.361C900.545 206.829 769.397 338.098 608.188 338.098L608.188 338.098zM512.785 360.431c127.658 0 231.524 104.015 231.524 231.894 0 127.873-103.866 231.895-231.524 231.895-127.654 0-231.53-104.044-231.53-231.9C281.255 464.474 385.131 360.431 512.785 360.431L512.785 360.431zM512.785 360.431"  horiz-adv-x="1024" />

    
    <glyph glyph-name="pengyouquan" unicode="&#58920;" d="M687.641075 495.632857 687.641075 780.240493c0 0-139.301154 74.620207-301.894516 17.070826L687.641075 495.632857zM714.042575 328.236751 714.042575 768.479267c0 0 164.685143-74.620207 211.100074-255.832945L714.042575 328.236751zM625.453039 200.291698l303.986297 285.749462c0 0 53.820909-87.409137-26.4017-285.749462L625.453039 200.291698zM470.209094 164.037678l410.610606 0c0 0-49.580784-134.339318-226.986303-189.71937L470.209094 164.037678zM336.165776 254.701209l0-267.53681c0 0 106.624109-68.282904 289.287263-22.437387L336.165776 254.701209zM98.60744 240.827615l207.990582 186.579299 0-424.256754C306.598222 3.15016 180.978393 46.769186 98.60744 240.827615zM93.349805 270.68717c0 0-47.545564 153.46555 18.995521 286.720004l286.064848 0L93.349805 270.68717zM130.323337 587.32389c0 0 60.152816 136.394724 223.763688 200.395732l195.270207-200.395732L130.323337 587.32389z"  horiz-adv-x="1024" />

    
    <glyph glyph-name="paiming1" unicode="&#59121;" d="M892.82263 486.4 892.82263 691.2C1028.286829 691.2 1029.998787 698.026658 1029.998787 622.933342 1028.281342 547.84 968.269517 486.4 892.82263 486.4L892.82263 486.4ZM206.941848 486.4C131.494962 486.4 69.765692 547.84 69.765692 622.933342 69.765692 698.026658 71.483137 691.2 206.941848 691.2L206.941848 486.4ZM892.82263 759.466658C892.82263 834.56 831.09336 896 755.646474 896L344.118005 896C268.671118 896 206.941848 834.56 206.941848 759.466658-27.969576 759.466658 1.177615 759.466658 1.177615 622.933342 1.177615 510.293342 93.771519 418.133342 206.941848 418.133342 215.512616 418.133342 222.371423 419.837278 230.947675 419.837278 277.241886 286.717278 385.270851 165.546658 515.588201 146.770594L515.588201-59.733342 412.706084-59.733342C393.841619-59.733342 378.412044-75.096064 378.412044-93.866658 378.412044-112.642722 393.841619-128 412.706084-128L687.058397-128C705.917375-128 721.352434-112.642722 721.352434-93.866658 721.352434-75.096064 705.917375-59.733342 687.058397-59.733342L584.176278-59.733342 584.176278 146.770594C714.493627 165.546658 822.517108 285.013342 868.816804 419.837278 875.675611 419.837278 884.251865 418.133342 892.82263 418.133342 1005.99296 418.133342 1098.586866 510.293342 1098.586866 622.933342 1096.874908 759.466658 1126.022097 759.466658 892.82263 759.466658L892.82263 759.466658Z"  horiz-adv-x="1100" />

    
    <glyph glyph-name="paiming" unicode="&#59009;" d="M916.504754-61.420629 106.820887-61.420629c-23.131837 0-41.877783 18.759249-41.877783 41.879829 0 23.12058 18.745946 41.879829 41.877783 41.879829l809.683866 0c23.134907 0 41.87676-18.759249 41.87676-41.879829C958.382537-42.66138 939.63966-61.420629 916.504754-61.420629zM874.622878 106.096642 762.945379 106.096642c-30.837332 0-55.839773 25.00244-55.839773 55.842843L707.105606 608.659713c0 30.837332 25.00244 55.839773 55.839773 55.839773l111.677499 0c30.840402 0 55.839773-25.00244 55.839773-55.839773l0-446.720228C930.46265 131.099083 905.46328 106.096642 874.622878 106.096642zM846.701968 580.73778l-55.839773 0 0-390.877385 55.839773 0L846.701968 580.73778zM567.505152 106.096642 455.824583 106.096642c-30.840402 0-55.842843 25.00244-55.842843 55.842843L399.98174 776.180054c0 30.837332 25.00244 55.839773 55.842843 55.839773l111.680569 0c30.835286 0 55.839773-25.00244 55.839773-55.839773l0-614.240569C623.344924 131.099083 598.339414 106.096642 567.505152 106.096642zM539.584242 748.260168l-55.839773 0 0-558.400796 55.839773 0L539.584242 748.260168zM260.381285 106.096642 148.70174 106.096642c-30.835286 0-55.839773 25.00244-55.839773 55.842843L92.861968 441.139372c0 30.837332 25.00551 55.839773 55.839773 55.839773l111.680569 0c30.840402 0 55.839773-25.00244 55.839773-55.839773l0-279.20091C316.221058 131.099083 291.221688 106.096642 260.381285 106.096642zM232.464469 413.217439l-55.839773 0 0-223.357044 55.839773 0L232.464469 413.217439z"  horiz-adv-x="1024" />

    
    <glyph glyph-name="qianbao" unicode="&#58909;" d="M837.174987 743.371834 183.77249 743.371834c-66.052368 0-119.79027-53.748135-119.79027-119.79027L63.98222 144.41946c0-66.042135 53.737902-119.79027 119.79027-119.79027l653.402497 0c66.052368 0 119.79027 53.748135 119.79027 119.79027L956.965258 623.581564C956.965258 689.623699 903.227356 743.371834 837.174987 743.371834zM891.62511 307.769828 652.043546 307.769828c-42.028209 0-76.230172 34.201963-76.230172 76.230172s34.201963 76.230172 76.230172 76.230172l239.581564 0L891.62511 307.769828zM891.62511 525.570319 652.043546 525.570319c-78.059843 0-141.570319-63.511499-141.570319-141.570319s63.511499-141.570319 141.570319-141.570319l239.581564 0 0-98.010221c0-30.033014-24.428366-54.450123-54.450123-54.450123L183.77249 89.969337c-30.021757 0-54.450123 24.417109-54.450123 54.450123L129.322367 623.581564c0 30.033014 24.428366 54.450123 54.450123 54.450123l653.402497 0c30.021757 0 54.450123-24.417109 54.450123-54.450123L891.62511 525.570319zM619.373473 384c0-24.057929 19.50217-43.560098 43.560098-43.560098 24.057929 0 43.560098 19.50217 43.560098 43.560098s-19.50217 43.560098-43.560098 43.560098C638.876666 427.560098 619.373473 408.057929 619.373473 384z"  horiz-adv-x="1024" />

    
    <glyph glyph-name="auth" unicode="&#58932;" d="M959.787 747.093l-44.331 0.725c-1.024 0-100.437 2.048-203.051 41.728-105.301 40.789-173.141 87.552-173.781 88.021l-26.752 18.432-26.624-18.475c-0.64-0.427-68.48-47.232-173.781-87.979-102.528-39.765-201.984-41.728-202.923-41.728l-44.544-0.725v-430.464c0-216.107 291.328-444.629 447.957-444.629 156.757 0 448.043 228.523 448.043 444.629l-0.213 430.464zM321.877 123.52v417.067h-39.765v37.931h159.061v-189.611l200.192 189.611h157.696l-477.184-454.997z"  horiz-adv-x="1024" />

    
    <glyph glyph-name="canjiren" unicode="&#59028;" d="M362.496-61.952c-132.096 0-239.104 105.984-239.104 237.568 0 71.68 32.768 136.192 83.968 179.712l-4.608 74.24c-85.504-53.248-142.848-146.432-142.848-253.952 0-165.888 135.168-300.032 302.08-300.032 122.88 0 228.352 73.728 275.456 178.176l-42.496 73.216C572.416 18.944 477.184-61.952 362.496-61.952zM314.88 889.344c-55.808 0-101.376-44.544-101.376-100.352 0-54.784 45.568-100.352 101.376-100.352 56.32 0 101.376 45.568 101.376 100.352C416.256 844.8 370.688 889.344 314.88 889.344zM311.808 731.648c-33.792 0-60.928 27.648-60.928 60.416 0 33.792 27.136 60.416 60.928 60.416 33.792 0 60.928-27.136 60.928-60.416C372.736 759.296 345.6 731.648 311.808 731.648zM968.704-13.312l-175.616 283.136c-11.264 17.92-35.84 44.032-74.752 44.032L477.184 313.856l-5.632 64 177.152 0c40.96 0 57.344 31.744 57.344 57.856 0 36.352-30.208 60.928-61.952 60.928L461.312 496.64l-8.192 70.656c-4.096 53.248-41.472 95.232-117.248 95.232-57.856-3.072-103.936-49.664-101.376-103.424l18.944-308.224c4.608-54.272 53.248-98.816 110.08-98.816l317.44 0 139.776-231.424c18.432-34.816 74.752-52.224 115.712-33.28C977.92-94.208 985.088-42.496 968.704-13.312zM908.288-63.488c-34.304-10.752-43.52 17.408-56.32 37.376l-146.944 222.208L367.616 199.68c-42.496 0-61.44 31.744-65.024 72.704L281.6 534.528c-2.048 40.96 13.824 80.896 57.344 82.944 43.008 2.048 66.56-28.16 69.632-68.608L419.84 459.776l205.312 1.024c20.48-0.512 39.424-0.512 39.424-19.968 0-17.92-16.896-18.432-36.864-19.456l-204.8-0.512 13.312-148.992 256.512-1.024c15.36-0.512 53.248-9.216 71.168-41.472l143.36-227.328C920.576-20.48 935.936-46.08 908.288-63.488z"  horiz-adv-x="1024" />

    
    <glyph glyph-name="kai" unicode="&#58967;" d="M708.13696 682.60864 315.87328 682.60864C150.94784 682.60864 17.25952 548.9152 17.25952 384c0-164.92032 133.69344-298.60864 298.61376-298.60864l392.26368 0c164.9152 0 298.60864 133.68832 298.60864 298.60864C1006.7456 548.9152 873.05216 682.60864 708.13696 682.60864L708.13696 682.60864zM708.46976 113.63328c-149.6576 0-270.99136 121.32352-270.99136 270.99648 0 149.66784 121.33376 270.99136 270.99136 270.99136 149.66784 0 271.0016-121.32864 271.0016-270.99136C979.47136 234.96192 858.1376 113.63328 708.46976 113.63328L708.46976 113.63328z"  horiz-adv-x="1024" />

    
    <glyph glyph-name="pingfen" unicode="&#58901;" d="M1020.93824 509.696a64.64 64.64 0 0 1-51.584 45.44l-276.352 41.984L569.41824 858.752A63.744 63.744 0 0 1 512.07424 896a63.68 63.68 0 0 1-57.28-37.248L331.21024 597.12l-276.48-41.984a64.64 64.64 0 0 1-51.52-45.44c-7.552-24.192-1.28-50.688 16.192-68.48l199.936-203.584-47.168-287.616c-4.16-25.024 5.76-50.304 25.408-65.28a61.952 61.952 0 0 1 67.328-5.12L512.07424 15.488l247.232-135.744a62.08 62.08 0 0 1 67.328 5.12c19.648 14.912 29.504 40.192 25.408 65.28l-47.232 287.552L1004.87424 441.28c17.408 17.728 23.68 44.224 16.128 68.416"  horiz-adv-x="1024" />

    
    <glyph glyph-name="kaiguanclose" unicode="&#58987;" d="M309.794 76.152h404.239c169.953 0 307.726 137.774 307.726 307.727s-137.774 307.726-307.726 307.726h-404.239c-169.952 0-307.726-137.773-307.726-307.726s137.774-307.727 307.726-307.727zM309.445 662.5c154.23 0 279.268-125.031 279.268-279.268s-125.039-279.268-279.268-279.268c-154.24 0-279.269 125.033-279.269 279.268 0 154.238 125.030 279.268 279.269 279.268z"  horiz-adv-x="1024" />

    
    <glyph glyph-name="shangchuanzhaopian" unicode="&#59073;" d="M512 384m-447.5 0a447.5 447.5 0 1 1 895 0 447.5 447.5 0 1 1-895 0ZM719 170H305c-29.2 0-53 23.4-53 51.4V484.5c0 28 23.8 50.5 53 50.5h115c9.6 0 17.4-7.9 17.4-17.5S429.7 500 420 500H305c-10 0-18-6.7-18-15.5v-263.1c0-8.8 8-16.4 18-16.4h414c10 0 18 7.7 18 16.4V484.5c0 8.8-7.9 15.5-18 15.5H604.4c-9.6 0-17.4 7.9-17.4 17.5s7.8 17.5 17.4 17.5H719c29.2 0 53-22.5 53-50.5v-263.1c0-28-23.8-51.4-53-51.4zM603.6 500.5c-7.6 0-14.6 5-16.7 12.7l-11.3 39.6c0 0.1-0.1 0.4-0.1 0.4-1.6 5.6-6.7 9.8-12.5 9.8H460.6c-5.8 0-11-4.2-12.5-9.8l-10.9-39.7c-2.6-9.3-12.1-14.8-21.4-12.2-9.3 2.6-14.7 12.1-12.1 21.4l10.9 39.9c5.7 20.7 24.7 35.4 46.1 35.4H563c21.5 0 40.4-14.8 46.1-35.5l11.3-39.7c2.6-9.2-2.7-19-12-21.6-1.6-0.5-3.2-0.7-4.8-0.7zM512 248.4c-57.1 0-103.5 46.9-103.5 104.6S454.9 457.6 512 457.6 615.5 410.7 615.5 353c0-57.7-46.4-104.6-103.5-104.6z m0 174.3c-37.8 0-68.6-31.3-68.6-69.7 0-38.5 30.8-69.7 68.6-69.7s68.6 31.3 68.6 69.7-30.8 69.7-68.6 69.7zM665 436.2m-27.4 0a27.4 27.4 0 1 1 54.8 0 27.4 27.4 0 1 1-54.8 0Z"  horiz-adv-x="1024" />

    
    <glyph glyph-name="zhanghaoshezhi" unicode="&#58979;" d="M889.856 187.904c-3.584 18.944-17.408 31.744-33.792 31.744H854.528c-12.288 0-22.016 9.728-22.016 22.016 0 2.048 1.024 6.144 2.048 8.192 7.68 16.896 2.048 37.376-13.312 48.128l-1.536 1.024-42.496 23.552-1.536 0.512c-5.12 2.048-10.24 3.072-15.872 3.072-11.264 0-22.528-4.608-29.696-12.288-4.096-4.096-10.752-9.216-15.36-11.264-2.048 4.608-5.632 8.704-10.24 11.264-20.992 12.288-43.52 22.528-67.584 30.208 66.56 39.936 112.128 112.128 112.128 195.584 0 125.952-101.888 227.84-227.84 227.84S292.352 665.6 292.352 539.648c0-83.456 45.568-155.648 112.64-195.584-136.704-43.52-239.104-161.792-260.096-307.2-2.048-14.848 9.728-28.672 25.088-28.672 12.8 0 23.552 9.216 25.088 21.504C218.112 189.44 355.328 312.32 520.704 312.32c29.184 0 57.344-4.096 83.968-11.264l-4.608-2.56-1.536-1.024c-15.36-10.752-20.992-30.72-13.824-48.128 1.024-2.048 2.048-6.144 2.048-8.192 0-12.288-9.728-22.016-22.016-22.016h-1.024c-16.896 0-30.72-12.8-34.304-31.744-0.512-2.048-3.584-20.48-3.584-35.84s3.584-33.792 3.584-35.84c3.584-18.944 17.408-31.744 33.792-31.744H564.736c12.288 0 22.016-9.728 22.016-22.016 0-2.048-1.024-6.144-2.048-8.192-7.68-16.896-2.048-37.376 13.312-48.128l1.024-1.024 41.984-23.552 1.536-0.512c5.12-2.048 10.24-3.072 15.872-3.072 11.776 0 22.528 4.608 30.208 12.8 5.12 5.632 15.36 12.8 18.944 13.312 4.096-0.512 13.824-7.168 19.456-13.312 7.68-8.192 18.944-13.312 30.72-13.312 5.632 0 10.752 1.024 15.872 3.072l1.536 0.512 43.52 24.064 1.024 1.024c15.36 10.752 20.992 31.232 13.312 48.128-1.024 2.048-2.048 6.144-2.048 8.192 0 12.288 9.728 22.016 22.016 22.016H854.528c16.896 0 30.208 12.8 33.792 31.744 0.512 2.048 3.584 20.48 3.584 35.84 1.536 15.872-1.536 34.304-2.048 36.352zM343.552 539.648c0 97.792 79.36 177.152 177.152 177.152s177.152-79.36 177.152-177.152-79.36-177.152-177.152-177.152-177.152 79.872-177.152 177.152z m506.368-414.72c-32.768-2.048-58.88-29.696-58.88-62.976 0-9.728 3.584-19.456 5.12-23.04l-37.376-20.992h-0.512c-3.072 3.584-25.6 26.624-49.152 26.624s-45.568-22.528-49.152-26.112h-0.512l-36.352 20.48c1.536 3.584 5.12 13.312 5.12 23.04 0 33.28-26.112 60.416-58.88 62.976-1.024 6.144-3.072 17.92-3.072 27.136 0 8.704 1.536 20.992 3.072 27.136 32.768 2.048 58.88 29.696 58.88 62.976 0 9.728-3.584 19.456-5.12 23.04l32.256 17.92c8.192-3.584 15.872-7.68 23.04-11.776 2.048-1.024 4.608-2.048 6.656-2.56 7.68-4.096 16.384-7.168 25.088-7.168 23.04 0 44.544 20.992 48.128 24.576h0.512l36.864-20.48c-1.536-3.584-5.12-13.312-5.12-23.04 0-33.28 26.112-60.416 58.88-62.976 1.024-6.144 3.072-17.92 3.072-27.136 0-9.728-1.536-22.016-2.56-27.648zM709.12 220.672c-37.888 0-68.608-30.72-68.608-68.608s30.72-68.608 68.608-68.608 68.608 30.72 68.608 68.608-30.72 68.608-68.608 68.608z m0-96.256c-15.36 0-27.648 12.288-27.648 27.648 0 15.36 12.288 27.648 27.648 27.648s27.648-12.288 27.648-27.648c0-15.36-12.288-27.648-27.648-27.648z"  horiz-adv-x="1024" />

    
    <glyph glyph-name="xiangji" unicode="&#58963;" d="M512 477.866667c-89.6 0-136.533333-46.933333-136.533333-136.533334s46.933333-136.533333 136.533333-136.533333 136.533333 46.933333 136.533333 136.533333-46.933333 136.533333-136.533333 136.533334zM853.333333 682.666667h-136.533333L640 768H384L307.2 682.666667H170.666667c-46.933333 0-85.333333-38.4-85.333334-85.333334v-512c0-46.933333 38.4-85.333333 85.333334-85.333333h682.666666c46.933333 0 85.333333 38.4 85.333334 85.333333V597.333333c0 46.933333-38.4 85.333333-85.333334 85.333334z m-341.333333-554.666667c-119.466667 0-213.333333 93.866667-213.333333 213.333333s93.866667 213.333333 213.333333 213.333334 213.333333-93.866667 213.333333-213.333334-93.866667-213.333333-213.333333-213.333333z"  horiz-adv-x="1024" />

    
    <glyph glyph-name="yuyin" unicode="&#59259;" d="M512-121.344c-278.528 0-505.344 226.816-505.344 505.344-0 278.528 226.816 505.344 505.344 505.344 278.528 0 505.344-226.816 505.344-505.344 0-278.528-226.816-505.344-505.344-505.344zM512 827.904c-244.736 0-443.904-199.168-443.904-443.904s199.168-443.904 443.904-443.904 443.904 199.168 443.904 443.904-199.168 443.904-443.904 443.904zM716.8 460.288c-16.896 0-30.72-13.824-30.72-30.72v-38.912c0-96.256-78.336-174.080-174.080-174.080-96.256 0-174.080 78.336-174.080 174.080v38.912c0 16.896-13.824 30.72-30.72 30.72s-30.72-13.824-30.72-30.72v-38.912c0-119.808 89.6-218.624 204.8-233.472v-35.84h-105.472c-16.896 0-30.72-13.824-30.72-30.72s13.824-30.72 30.72-30.72h272.384c16.896 0 30.72 13.824 30.72 30.72s-13.824 30.72-30.72 30.72h-105.472v35.84c115.712 15.36 204.8 114.176 204.8 233.472v38.912c0 17.408-13.312 30.72-30.72 30.72zM512 269.824c70.656 0 128 57.344 128 128v177.152c0 70.656-57.344 128-128 128s-128-57.344-128-128v-177.152c0-70.656 57.344-128 128-128zM445.44 574.976c0 36.864 29.696 66.56 66.56 66.56s66.56-29.696 66.56-66.56v-177.152c0-36.864-29.696-66.56-66.56-66.56s-66.56 29.696-66.56 66.56v177.152z"  horiz-adv-x="1024" />

    
    <glyph glyph-name="xiajuchi" unicode="&#58903;" d="M89.402 393.6H960s-7.237-19.2-16.165-19.2c-5.152 0-9.741 6.395-12.701 11.803-2.96-5.408-7.549-11.803-12.701-11.803s-9.741 6.395-12.701 11.803c-2.96-5.408-7.549-11.803-12.701-11.803s-9.741 6.395-12.701 11.803c-2.96-5.408-7.549-11.803-12.701-11.803s-9.742 6.395-12.702 11.803c-2.96-5.408-7.549-11.803-12.701-11.803s-9.741 6.394-12.701 11.802c-2.96-5.408-7.549-11.802-12.701-11.802s-9.741 6.395-12.701 11.803c-2.96-5.408-7.549-11.803-12.701-11.803s-9.741 6.395-12.701 11.803c-2.96-5.408-7.549-11.803-12.701-11.803s-9.741 6.395-12.701 11.803c-2.962-5.408-7.55-11.803-12.702-11.803s-9.741 6.395-12.701 11.803c-2.96-5.408-7.549-11.803-12.701-11.803s-9.741 6.394-12.701 11.803c-2.96-5.41-7.549-11.803-12.701-11.803s-9.741 6.395-12.701 11.803c-2.96-5.408-7.55-11.803-12.703-11.803-5.15 0-9.739 6.395-12.699 11.803-2.96-5.408-7.55-11.803-12.702-11.803s-9.741 6.395-12.699 11.803c-2.962-5.408-7.55-11.803-12.703-11.803-5.152 0-9.741 6.395-12.701 11.803-2.96-5.408-7.549-11.803-12.701-11.803s-9.741 6.395-12.701 11.803c-2.96-5.408-7.549-11.803-12.701-11.803s-9.741 6.395-12.701 11.803c-2.96-5.408-7.549-11.803-12.701-11.803s-9.741 6.395-12.701 11.803c-2.96-5.408-7.549-11.803-12.701-11.803s-9.741 6.395-12.702 11.803c-2.96-5.408-7.549-11.803-12.699-11.803-5.152 0-9.742 6.394-12.702 11.803-2.96-5.41-7.549-11.803-12.701-11.803s-9.741 6.395-12.701 11.803c-2.96-5.408-7.549-11.803-12.701-11.803s-9.741 6.395-12.701 11.803c-2.96-5.408-7.549-11.803-12.701-11.803s-9.741 6.395-12.702 11.803c-2.958-5.408-7.549-11.803-12.701-11.803s-9.741 6.395-12.701 11.803c-2.96-5.408-7.549-11.803-12.699-11.803-5.152 0-9.742 6.395-12.703 11.803-2.96-5.408-7.549-11.803-12.701-11.803s-9.741 6.395-12.701 11.803c-2.96-5.408-7.549-11.803-12.701-11.803s-9.741 6.395-12.701 11.803c-2.962-5.408-7.55-11.803-12.701-11.803-5.152 0-9.741 6.395-12.703 11.803-2.96-5.408-7.549-11.803-12.701-11.803s-9.741 6.394-12.701 11.803c-2.96-5.41-7.549-11.803-12.701-11.803s-9.741 6.395-12.701 11.803c-2.96-5.408-7.55-11.803-12.702-11.803-5.15 0-9.739 6.395-12.699 11.803-2.96-5.408-7.549-11.803-12.701-11.803s-9.741 6.395-12.701 11.803c-2.96-5.408-7.549-11.803-12.702-11.803-5.152 0-9.741 6.395-12.701 11.803-2.96-5.408-7.549-11.803-12.701-11.803s-9.741 6.395-12.701 11.803c-2.96-5.408-7.549-11.803-12.701-11.803s-9.741 6.395-12.701 11.803c-2.96-5.408-7.549-11.803-12.701-11.803C71.237 374.4 64 393.6 64 393.6h25.402z"  horiz-adv-x="1024" />

    
    <glyph glyph-name="add" unicode="&#58885;" d="M510.352119-16.416237000000024c-220.548741 0-399.339141 178.82643-399.339141 399.403615S289.803378 782.377719 510.352119 782.377719c220.550637 0 399.341037-178.813156 399.341037-399.390341S730.902756-16.416237000000024 510.352119-16.416237000000024zM510.352119 732.455822c-192.982281 0-349.421037-156.461511-349.421037-349.468444S317.369837 33.51703699999996 510.352119 33.51703699999996s349.421037 156.463407 349.421037 349.470341S703.3344 732.455822 510.352119 732.455822zM660.104533 358.02074100000004L535.313067 358.02074100000004l0-124.81043c0-13.778489-11.174874-24.957156-24.959052-24.957156-13.784178 0-24.957156 11.178667-24.957156 24.957156l0 124.81043-124.795259 0c-13.784178 0-24.959052 11.17677-24.959052 24.966637 0 13.780385 11.17677 24.957156 24.959052 24.957156l124.795259 0 0 124.816119c0 13.778489 11.174874 24.951467 24.957156 24.951467 13.786074 0 24.959052-11.171081 24.959052-24.951467l0-124.816119 124.791467 0c13.786074 0 24.959052-11.17677 24.959052-24.957156C685.063585 369.19751099999996 673.890607 358.02074100000004 660.104533 358.02074100000004z"  horiz-adv-x="1024" />

    
    <glyph glyph-name="gouxuankuang" unicode="&#58899;" d="M128 703.616v-639.232C128 28.8 156.8 0 192.384 0h639.232C867.2 0 896 28.8 896 64.384V703.616C896 739.2 867.2 768 831.616 768H192.384C156.8 768 128 739.2 128 703.616z m-64 0C64 774.528 121.408 832 192.384 832h639.232C902.528 832 960 774.592 960 703.616v-639.232A128.32 128.32 0 0 0 831.616-64H192.384A128.32 128.32 0 0 0 64 64.384V703.616z"  horiz-adv-x="1024" />

    
    <glyph glyph-name="cheliang" unicode="&#58886;" d="M939.07856157 19.454561850000005c-11.83040171-49.86209963-56.1853861-85.19729038-107.43299755-85.58849366-47.96895573 0-88.80078393 30.6954752-104.29172964 74.88047218H297.41110727c-15.21151431-44.66701539-57.10634325-74.74774243-104.29289358-74.88047218-51.24644637 0.39003933-95.60026681 35.72522894-107.43299755 85.58849366-53.60880185 22.41500843-87.80065451 78.02406912-83.3763328 139.6991067l10.56481394 157.42316886c4.47438621 57.20414435 39.61630379 107.48655502 91.80000711 131.34645361l46.39948686 237.51619129C168.06258461 767.17415879 248.15560477 833.70430691 329.67488739 833.70430691H695.16107662c81.52044658 0 161.6844891-66.53014813 178.60169615-148.2648246l46.32846449-237.51619129c52.20931925-23.85756957 87.39547933-74.12717341 91.94321579-131.34645361l10.42160526-157.42316886c4.49767197-61.67736661-29.69534578-117.28526222-83.37749674-139.6991067z m10.6369991 292.26716615c-3.60815047 38.31695019-29.91073963 70.70065323-66.67335566 82.09095111a31.98551381 31.98551381 0 0 0-22.12975616 26.98370162c-0.21306595 1.78369991-0.42846094 3.56972885-0.4994833 5.35342876-0.07102237 0.99896547-0.07102237 1.85588622-0.28525227 2.85601565l-47.46947357 243.08384995c-10.99443769 52.89508864-64.88732786 97.58073287-117.56818545 97.58073288h-365.4838602c-52.75304505 0-106.57724075-44.68680818-117.5693494-97.58073288l-47.54165988-243.08384995c-0.14204359-0.78473443-0.14204359-1.85588622-0.21306595-2.78382933l-0.50064726-5.49663744a31.90983453 31.90983453 0 0 0-22.05756984-26.84165803c-36.80569571-11.41125575-63.11759872-43.86365213-66.67102778-82.23415865l-10.56597788-157.35331271c-2.78499328-38.19004245 20.20284757-70.8124251 56.03635655-79.30712178a31.76429795 31.76429795 0 0 0 24.0555008-29.55330105c0.83712797-26.28512541 22.17516373-47.27852942 48.46960299-47.68370346 25.61798371 0.28292323 46.68473913 20.26222706 48.32755826 45.82781724 1.29003861 16.29198109 14.78188942 28.91643221 31.12393614 29.1248401H752.19989049c16.20349383 0 29.76636701-12.70711637 31.12393614-29.1248401 1.7115136-25.56209835 22.78176085-45.51229326 48.39858062-45.82781724 25.76934229 0 47.11319893 20.91423175 48.46843904 47.68370346 0.71371321 14.27658638 10.56597789 26.34101077 24.12884992 29.55330105 35.76365056 8.49469667 58.74916352 41.11707933 55.96417024 79.30712178l-10.56830578 157.42549902z m-109.43092736-129.85149895a70.60285213 70.60285213 0 0 0-49.8970294-21.12962674 70.2442496 70.2442496 0 0 0-49.89702826 21.12962674 74.38681088 74.38681088 0 0 0-20.55912221 51.18357504c0 18.91630194 7.56675357 37.69055915 20.55912221 51.11022364a70.45265749 70.45265749 0 0 0 49.89702826 21.27167033 70.66805248 70.66805248 0 0 0 49.8970294-21.27167033c27.49366386-28.55550066 27.49366386-73.73829803 0-102.29379868z m-59.89133766 247.85047324a34.76701411 34.76701411 0 0 0-27.6263936-11.99340316h-480.8422127a35.3363547 35.3363547 0 0 0-28.05368946 12.42069902 37.11772672 37.11772672 0 0 0-7.21048007 29.62432342l0.50064725 2.35653347 37.76274546 182.19354681c4.71073792 26.55407673 30.33803662 48.68266894 56.75006976 48.68266894H693.01877305c26.26998955 0 52.03933184-22.20077853 56.6790474-48.68266894l37.76274545-182.26573312 0.42846095-2.28318208a37.12354759 37.12354759 0 0 0-7.4957312-30.05278436z m-91.22950372 199.32498489H335.60114973l-29.91073963-147.35900331H719.14555392l-29.98176199 147.35900331zM284.20450873 181.87022905000003a70.31527083 70.31527083 0 0 0-49.89702827-21.12962674 70.31643591 70.31643591 0 0 0-49.82600704 21.12962674 73.88616363 73.88616363 0 0 0-20.70233088 51.18357504c0 18.91630194 7.56558962 37.69055915 20.70233088 51.11022364a70.81358905 70.81358905 0 0 0 49.89702827 21.2006491c18.48784099 0 36.8336384-7.85200583 49.8970294-21.27167146 13.06222592-13.42082958 20.70233088-32.19508679 20.70232974-51.11138759a74.10970851 74.10970851 0 0 0-20.7733521-51.11138873z"  horiz-adv-x="1024" />

    
    <glyph glyph-name="sousuo" unicode="&#58904;" d="M945.285 20.275l-159.022 156.12c50.652 67.066 81.05 150.276 81.05 240.803 0 221.123-179.216 400.379-400.374 400.379-221.138 0-400.384-179.256-400.384-400.379 0-221.163 179.24-400.4 400.384-400.4 101.888 0 194.621 38.385 265.277 101.06l159.248-156.33c15.641-15.365 40.366-14.715 55.244 1.475 14.843 16.194 14.219 41.856-1.423 57.272z m-478.32 67.154c-182.109 0-329.718 147.635-329.718 329.743 0 182.088 147.614 329.728 329.717 329.728 182.093 0 329.718-147.635 329.718-329.728 0-182.108-147.625-329.743-329.718-329.743z"  horiz-adv-x="1024" />

    
    <glyph glyph-name="tuandui" unicode="&#58958;" d="M983.04 117.76c0-89.6-74.24-163.84-163.84-163.84-46.08 0-87.04 17.92-117.76 48.64-56.32-30.72-120.32-48.64-189.44-48.64s-133.12 17.92-189.44 48.64c-30.72-30.72-71.68-48.64-117.76-48.64-89.6 0-163.84 74.24-163.84 163.84 0 64 35.84 117.76 89.6 145.92-5.12 25.6-7.68 51.2-7.68 79.36 0 163.84 102.4 304.64 245.76 360.96 7.68 84.48 76.8 151.04 161.28 151.04 89.6 0 163.84-74.24 163.84-163.84v-5.12c122.88-66.56 204.8-194.56 204.8-343.04 0-28.16-2.56-53.76-7.68-79.36 53.76-28.16 92.16-81.92 92.16-145.92z m-860.16 0c0-46.08 35.84-81.92 81.92-81.92s81.92 35.84 81.92 81.92-35.84 81.92-81.92 81.92-81.92-38.4-81.92-81.92z m409.6 652.8c-46.08 0-81.92-35.84-81.92-81.92s35.84-81.92 81.92-81.92 81.92 35.84 81.92 81.92-35.84 81.92-81.92 81.92z m138.24-166.4c-28.16-46.08-79.36-76.8-138.24-76.8-66.56 0-122.88 38.4-148.48 94.72-104.96-48.64-179.2-156.16-179.2-279.04 0-20.48 2.56-40.96 5.12-61.44 87.04-2.56 156.16-74.24 156.16-163.84 0-15.36-2.56-28.16-5.12-43.52 43.52-25.6 94.72-38.4 148.48-38.4s104.96 15.36 148.48 38.4c-2.56 12.8-5.12 28.16-5.12 43.52 0 87.04 69.12 158.72 156.16 163.84 5.12 20.48 5.12 40.96 5.12 61.44 5.12 110.08-53.76 207.36-143.36 261.12zM819.2 199.68c-46.08 0-81.92-35.84-81.92-81.92s35.84-81.92 81.92-81.92 81.92 35.84 81.92 81.92c0 43.52-38.4 81.92-81.92 81.92z"  horiz-adv-x="1024" />

    
    <glyph glyph-name="tuandui_keshi" unicode="&#59013;" d="M1024.244053 162.986667c0-46.933333-20.906667-55.701333-97.92-56.064-20.693333 182.037333-118.4 271.765333-222.933333 314.496a244.565333 244.565333 0 0 1 6.186667 299.029333 149.226667 149.226667 0 0 0 97.92-280.874667A281.344 281.344 0 0 0 1024.244053 162.986667zM603.124053 406.72C727.924053 382.442667 874.91072 299.818667 874.91072 64c0-64-85.12-64-362.666667-64-278.613333 0-362.666667-0.661333-362.666666 64 0 235.242667 146.56 318.293333 271.786666 342.72a192 192 0 1 0 181.76 0zM320.457387 422.4C216.564053 378.645333 119.07072 286.677333 98.377387 106.666667 20.937387 106.837333 0.244053 115.349333 0.244053 162.88a271.722667 271.722667 0 0 0 215.466667 277.333333A149.141333 149.141333 0 0 0 314.91072 720.426667a244.288 244.288 0 0 1 5.546667-298.026667z"  horiz-adv-x="1024" />

    
    <glyph glyph-name="yiyuan1" unicode="&#58889;" d="M511.998-64.44899999999996c-3.761 0-7.522 0.65-11.112 1.946C317.532 3.719000000000051 222.958 107.68600000000004 175.91 183.24c-51.99 83.486-59.395 151.878-59.685 154.748a32.987 32.987 0 0 0-0.165 3.287V679.75a32.71 32.71 0 0 0 22.474 31.07L501.757 830.55a32.693 32.693 0 0 0 20.483 0L885.466 710.8199999999999c13.413-4.418 22.474-16.949 22.474-31.07v-338.473c0-1.096-0.055-2.194-0.165-3.287-0.291-2.87-7.697-71.262-59.685-154.748-47.052-75.556-141.622-179.523-324.978-245.744a32.697 32.697 0 0 0-11.114-1.946zM181.49 343.32500000000005c1.258-8.795 10.433-63.256 51.92-128.612 58.969-92.888 152.663-164.031 278.588-211.572 125.929 47.54 219.62 118.683 278.59 211.572 41.358 65.15 50.604 119.478 51.92 128.641V656.087L511.999 765.033 181.49 656.087v-312.762zM332.671 474.75h358.657v-89.665H332.67V474.75zM467.167 609.248h89.664v-358.66h-89.664v358.66z"  horiz-adv-x="1024" />

    
    <glyph glyph-name="paizhao1" unicode="&#58880;" d="M921.6-59.73333333000005H102.4a102.51626667 102.51626667 0 0 0-102.4 102.4V588.8a102.51626667 102.51626667 0 0 0 102.4 102.4h142.38933333a33.90933333 33.90933333 0 0 1 24.13653334 9.99786667l96.544 96.544A101.73013333 101.73013333 0 0 0 437.87733333 827.73333333h148.24533334a101.73013333 101.73013333 0 0 0 72.40853333-29.99253333l96.544-96.544A33.90933333 33.90933333 0 0 1 779.21066667 691.2H921.6a102.51626667 102.51626667 0 0 0 102.4-102.4v-546.13333333a102.51626667 102.51626667 0 0 0-102.4-102.4zM102.4 622.93333333a34.17173333 34.17173333 0 0 1-34.13333333-34.13333333v-546.13333333a34.17173333 34.17173333 0 0 1 34.13333333-34.13333334h819.2a34.17173333 34.17173333 0 0 1 34.13333333 34.13333334V588.8a34.17173333 34.17173333 0 0 1-34.13333333 34.13333333H779.21066667a101.73013333 101.73013333 0 0 0-72.40853334 29.99253334l-96.544 96.544A33.90933333 33.90933333 0 0 1 586.12266667 759.46666667H437.87733333a33.90933333 33.90933333 0 0 1-24.13653333-9.99786667l-96.544-96.544A101.73013333 101.73013333 0 0 0 244.78933333 622.93333333zM512 76.79999999999995a238.93333333 238.93333333 0 1 0 168.95146667 69.98186667A237.37173333 237.37173333 0 0 0 512 76.79999999999995z m0 409.6c-94.1056 0-170.66666667-76.56106667-170.66666667-170.66666667s76.56106667-170.66666667 170.66666667-170.66666666 170.66666667 76.56106667 170.66666667 170.66666666-76.56106667 170.66666667-170.66666667 170.66666667zM853.33333333 486.4h-68.26666666a34.13333333 34.13333333 0 0 0 0 68.26666667h68.26666666a34.13333333 34.13333333 0 0 0 0-68.26666667z"  horiz-adv-x="1024" />

    
    <glyph glyph-name="renwu1" unicode="&#58966;" d="M884.8-118.4H144c-36.8 0-67.2 30.4-67.2 67.2V686.4c0 36.8 30.4 67.2 67.2 67.2h33.6v-100.8c0-36.8 30.4-67.2 67.2-67.2h538.4c36.8 0 67.2 30.4 67.2 67.2V753.6H884c36.8 0 67.2-30.4 67.2-67.2v-737.6c0.8-36.8-29.6-67.2-66.4-67.2z m-150.4 456c-20 19.2-52 19.2-72 0l-180-171.2-84 80c-20 19.2-52 19.2-72 0s-20-49.6 0-68l120-113.6c20-19.2 52-19.2 72 0l216 204.8c20 18.4 20 48.8 0 68z m-52 315.2h-336c-36.8 0-67.2 30.4-67.2 67.2v33.6C413.6 852 415.2 853.6 450.4 887.2H584C616.8 856 616 852 749.6 753.6V720c0-37.6-29.6-67.2-67.2-67.2zM514.4 820c-36.8 0-67.2-30.4-67.2-67.2 0-36.8 30.4-67.2 67.2-67.2 36.8 0 67.2 30.4 67.2 67.2 0 37.6-30.4 67.2-67.2 67.2z m0 0"  horiz-adv-x="1024" />

    
    <glyph glyph-name="xiezhu" unicode="&#58973;" d="M153.6 216l417.6 275.2c32 22.4 38.4 67.2 14.4 97.6-4.8 6.4-9.6 11.2-14.4 14.4L153.6 878.4C115.2 904 67.2 872 67.2 822.4V272c0-51.2 48-81.6 86.4-56z m-35.2 83.2V793.6c-1.6 11.2 6.4 22.4 17.6 24 4.8 0 8 0 12.8-3.2l376-248c11.2-8 12.8-24 4.8-35.2l-4.8-4.8-376-248c-9.6-6.4-22.4-1.6-27.2 8-3.2 4.8-4.8 8-3.2 12.8z m752-409.6L451.2 164.8c-32 22.4-38.4 67.2-14.4 97.6 4.8 6.4 9.6 11.2 14.4 14.4L868.8 552c38.4 25.6 86.4-6.4 86.4-56v-550.4c1.6-49.6-46.4-81.6-84.8-56z m35.2 84.8V468.8c1.6 11.2-6.4 20.8-17.6 22.4-4.8 0-8 0-12.8-3.2l-376-246.4c-11.2-8-12.8-24-4.8-35.2l4.8-4.8 376-248c9.6-6.4 22.4-1.6 27.2 8 3.2 3.2 4.8 8 3.2 12.8z"  horiz-adv-x="1024" />

    
    <glyph glyph-name="gongzuozheng" unicode="&#59108;" d="M320 192h-32c-17.6 0-32 14.4-32 32s14.4 32 32 32h32c17.6 0 32-14.4 32-32s-14.4-32-32-32z m0 192h-32c-17.6 0-32 14.4-32 32s14.4 32 32 32h32c17.6 0 32-14.4 32-32s-14.4-32-32-32z m416-192H448c-17.6 0-32 14.4-32 32s14.4 32 32 32h288c17.6 0 32-14.4 32-32s-14.4-32-32-32z m0 192H448c-17.6 0-32 14.4-32 32s14.4 32 32 32h288c17.6 0 32-14.4 32-32s-14.4-32-32-32z m128-384H160c-52.8 0-96 43.2-96 96V608c0 52.8 43.2 96 96 96h128c17.6 0 32-14.4 32-32s-14.4-32-32-32H160c-17.6 0-32-14.4-32-32v-512c0-17.6 14.4-32 32-32h704c17.6 0 32 14.4 32 32V608c0 17.6-14.4 32-32 32H736c-17.6 0-32 14.4-32 32s14.4 32 32 32h128c52.8 0 96-43.2 96-96v-512c0-52.8-43.2-96-96-96zM528 544h-32c-52.8 0-96 43.2-96 96V768c0 52.8 43.2 96 96 96h32c52.8 0 96-43.2 96-96v-128c0-52.8-43.2-96-96-96zM496 800c-17.6 0-32-14.4-32-32v-128c0-17.6 14.4-32 32-32h32c17.6 0 32 14.4 32 32V768c0 17.6-14.4 32-32 32h-32z"  horiz-adv-x="1024" />

    
    <glyph glyph-name="fanhui1" unicode="&#59201;" d="M241.225143 451.620571l329.654857 329.654858a36.571429 36.571429 0 0 1 0 51.712L533.723429 870.144a36.571429 36.571429 0 0 1-51.712 0L25.856 413.988571a36.571429 36.571429 0 0 1 0-51.712L482.011429-93.878857a36.571429 36.571429 0 0 1 51.712 0l37.156571 37.156571a36.571429 36.571429 0 0 1 0 51.712l-329.654857 329.654857H1353.142857a36.571429 36.571429 0 0 1 36.571429 36.571429v53.833143a36.571429 36.571429 0 0 1-36.571429 36.571428H241.225143z"  horiz-adv-x="1389" />

    
    <glyph glyph-name="icon" unicode="&#58969;" d="M1116.96 527.5930000000001a76.594 76.594 0 0 1-78.2202-2.81875l-392.294-252.422a126.247 126.247 0 0 0-136.348 0L117.809 524.775a76.6121 76.6121 0 0 1-78.2383 2.81875A75.7448 75.7448 0 0 1 0 461.118v-473.586c0-63.6386 52.2733-115.532 116.508-115.532H1040.05c64.2349 0 116.508 51.8216 116.508 115.532v473.586a75.7628 75.7628 0 0 1-39.5889 66.4754ZM211.496 516.065L509.543 325.51099999999996a128.036 128.036 0 0 1 137.432 0L945.003 516.065a98.9452 98.9452 0 0 1 45.8588 83.7312v189.723C990.916 848.2259 942.69 896 883.424 896H273.111c-59.2479 0-107.474-47.7741-107.474-106.498v-189.723a98.9452 98.9452 0 0 1 45.8588-83.7132Zm271.666 73.2513H551.101v66.8549a27.1033 27.1033 0 0 0 54.2067 0v-66.8549h67.9932a27.1033 27.1033 0 0 0 0-54.2067H605.308v-66.8549a27.1033 27.1033 0 0 0-54.2067 0v66.8549h-67.939a27.1033 27.1033 0 1 0 0 54.2067Z"  horiz-adv-x="1156" />

    
    <glyph glyph-name="iconset0186" unicode="&#58890;" d="M734.208 405.504L525.312 405.504 525.31200001 614.4c0 13.312-8.192 21.504-21.50400001 21.504-13.312 0-21.504-8.192-21.504-21.504l0-208.896L273.408 405.504c-8.192 0-17.408-8.192-17.40799999-21.504 0-13.312 8.192-21.504 21.50399999-21.504l208.896 0 0-208.896c0-13.312 8.192-21.504 21.504-21.504 13.312 0 21.504 8.192 21.504 21.504L529.408 362.496l208.896 0c12.288 0 21.504 8.192 21.504 21.504C755.712 397.312 742.4 405.504 734.208 405.504zM503.808 840.704C251.90400001 840.704 47.104 635.904 47.104 384s204.8-456.704 456.704-456.704 456.704 204.8 456.70399999 456.704S755.712 840.704 503.808 840.704zM503.808-33.79200000000003C273.408-33.79200000000003 84.99199999 153.60000000000002 84.992 384S273.408 801.792 503.808 801.792 921.6 614.4 921.59999999 384 734.208-33.79200000000003 503.808-33.79200000000003z"  horiz-adv-x="1024" />

    
    <glyph glyph-name="gouxuan" unicode="&#58888;" d="M726.976 502.816c-12.544 12.448-32.832 12.32-45.248-0.256l-233.28-235.808-103.264 106.112c-12.352 12.704-32.608 12.928-45.248 0.64-12.672-12.32-12.96-32.608-0.64-45.248l126.016-129.504c0.064-0.096 0.192-0.096 0.256-0.192 0.064-0.064 0.096-0.192 0.16-0.256 2.016-1.984 4.512-3.2 6.88-4.544 1.248-0.672 2.24-1.792 3.52-2.304 3.872-1.6 8-2.4 12.096-2.4 4.064 0 8.128 0.8 11.968 2.336 1.248 0.512 2.208 1.536 3.392 2.176 2.4 1.344 4.896 2.528 6.944 4.544 0.064 0.064 0.096 0.192 0.192 0.256 0.064 0.096 0.16 0.128 0.256 0.192L727.2 457.568c12.448 12.544 12.32 32.8-0.224 45.248zM832-32H192c-52.928 0-96 43.072-96 96V704c0 52.928 43.072 96 96 96h640c52.928 0 96-43.072 96-96v-640c0-52.928-43.072-96-96-96zM192 736c-17.632 0-32-14.368-32-32v-640c0-17.664 14.368-32 32-32h640c17.664 0 32 14.336 32 32V704c0 17.632-14.336 32-32 32H192z"  horiz-adv-x="1024" />

    
    <glyph glyph-name="tiaozhuan" unicode="&#58883;" d="M658.623061 388.107449L242.582809-27.932802000000038c-22.927296-22.89867201-22.927296-60.023145 0-82.89319399 22.870049-22.89867201 59.994521-22.898672 82.893194-1e-8L781.474437 345.143816c22.870049 22.870049 22.870049 59.994521-1e-8 82.893194-1.80327 1.80327-3.864151 3.234437-5.83916099 4.751474-0.34348 0.372103-0.60109 0.801454-0.94457 1.173557L329.3974 879.255346c-22.354829 22.354829-58.591978 22.354829-80.946806 1e-8s-22.354829-58.591978 0-80.94680601L658.623061 388.107449z"  horiz-adv-x="1024" />

    
    <glyph glyph-name="shenhe" unicode="&#58970;" d="M755.846465-67.490909H268.153535c-68.783838 0-124.767677 55.983838-124.767676 124.767677V582.076768c0 68.783838 55.983838 124.767677 124.767676 124.767676h49.002021c7.111111 11.377778 19.652525 18.488889 33.486868 18.488889h38.658586c3.10303 28.185859 15.644444 54.173737 36.072727 74.343435 23.40202 23.143434 54.30303 35.814141 87.143435 35.814141 32.840404 0 63.870707-12.8 87.272727-35.814141 20.428283-20.169697 32.969697-46.157576 36.072727-74.343435h37.624243c13.834343 0 26.375758-7.111111 33.486868-18.488889h49.002021c68.783838 0 124.767677-55.983838 124.767676-124.767676v-524.670707c-0.129293-68.913131-56.113131-124.89697-124.896969-124.89697z m-106.020202 731.79798H576.646465v34.650505h-1.034344v12.541414c0 34.779798-28.315152 62.965657-62.965656 62.965656-31.935354 0-58.828283-24.307071-62.448485-55.466666v-54.690909h-75.89495V574.060606h275.652526v90.246465z m168.727272-88.436364c0 38.917172-31.676768 70.593939-70.593939 70.593939h-35.038384v-93.737373c0-21.850505-17.713131-39.563636-39.563636-39.563637H350.642424c-21.850505 0-39.563636 17.713131-39.563636 39.563637V646.464646h-35.038384c-38.917172 0-70.593939-31.676768-70.593939-70.593939V63.353535c0-38.917172 31.676768-70.593939 70.593939-70.593939h471.919192c38.917172 0 70.593939 31.676768 70.593939 70.593939V575.870707zM466.10101 128.646465c-6.076768-6.076768-13.963636-9.050505-21.979798-9.050505-7.49899 0-14.99798 2.715152-20.945454 8.145454-2.456566 1.422222-4.783838 3.10303-6.723233 5.171717l-122.311111 122.311111c-12.153535 12.153535-12.153535 31.806061 0 43.959596 12.153535 12.153535 31.806061 12.153535 43.959596 0l105.244445-105.244444L686.545455 437.010101l0.129292 0.129293c12.153535 11.377778 31.288889 11.119192 43.183839-0.646465 5.818182-5.818182 9.050505-13.705051 9.050505-21.979798s-3.232323-16.032323-9.050505-21.979798l-263.757576-263.886868z"  horiz-adv-x="1024" />

    
    <glyph glyph-name="yuyin1" unicode="&#59054;" d="M600.064 76.8L552.96 123.904c71.68 61.44 116.736 151.552 116.736 253.952 0 96.256-40.96 184.32-106.496 245.76l47.104 47.104c77.824-73.728 126.976-176.128 126.976-292.864 0-120.832-53.248-227.328-137.216-301.056zM481.28 199.68l-49.152 49.152c43.008 24.576 73.728 73.728 73.728 129.024 0 51.2-24.576 94.208-61.44 120.832L491.52 547.84c49.152-38.912 81.92-100.352 81.92-169.984 0-73.728-36.864-139.264-92.16-178.176z m-126.976 118.784c-26.624 0-47.104 22.528-47.104 49.152 0 26.624 20.48 49.152 47.104 49.152 26.624 0 47.104-22.528 47.104-49.152 0-26.624-20.48-49.152-47.104-49.152zM512-128C229.376-128 0 101.376 0 384S229.376 896 512 896s512-229.376 512-512-229.376-512-512-512z m0 983.04C251.904 855.04 40.96 644.096 40.96 384s210.944-471.04 471.04-471.04 471.04 210.944 471.04 471.04S772.096 855.04 512 855.04z"  horiz-adv-x="1024" />

    
    <glyph glyph-name="weixin1" unicode="&#58968;" d="M678.398 531.676c10.792 0 21.478-0.771 32.081-1.919-28.804 130.955-172.2 228.264-335.841 228.264-182.973 0-332.86-121.792-332.86-276.438 0-89.294 49.866-162.58 133.212-219.434l-33.294-97.751 116.346 56.966c41.661-8.08 75.037-16.324 116.596-16.324 10.457 0 20.83 0.482 31.097 1.272-6.551 21.726-10.267 44.504-10.267 68.086-0.044 141.999 124.84 257.278 282.93 257.278z m-178.964 88.125c25.068 0 41.641-16.094 41.641-40.576 0-24.358-16.613-40.681-41.64-40.681-24.922 0-49.99 16.323-49.99 40.681 0 24.442 25.068 40.576 49.99 40.576z m-232.98-81.258c-24.946 0-50.16 16.323-50.16 40.681 0 24.442 25.174 40.576 50.16 40.576 24.941 0 41.558-16.094 41.558-40.576 0-24.358-16.574-40.681-41.559-40.681z m715.767-260.22c0 129.913-133.167 235.862-282.764 235.862-158.383 0-283.115-105.908-283.115-235.862 0-130.164 124.733-235.86 283.115-235.86 33.148 0 66.587 8.16 99.876 16.317l91.279-48.8-25.028 81.22c66.858 48.905 116.637 113.84 116.637 187.123z m-374.56 40.68c-16.573 0-33.273 16.096-33.273 32.52 0 16.178 16.7 32.46 33.273 32.46 25.17 0 41.66-16.323 41.66-32.46 0.04-16.424-16.447-32.52-41.66-32.52z m183.139 0c-16.491 0-33.065 16.096-33.065 32.52 0 16.178 16.614 32.46 33.065 32.46 24.922 0 41.64-16.323 41.64-32.46 0-16.424-16.72-32.52-41.64-32.52z"  horiz-adv-x="1024" />

    
    <glyph glyph-name="weixin" unicode="&#58907;" d="M512 384m-512 0a512 512 0 1 1 1024 0 512 512 0 1 1-1024 0ZM651.733333 500.266667h24.533334c-21.333333 100.266667-129.066667 172.8-247.466667 172.8-138.666667-3.2-250.666667-97.066667-250.666667-211.2 0-69.333333 38.4-124.8 101.333334-165.333334L254.933333 224l87.466667 41.6c30.933333-6.4 55.466667-13.866667 87.466667-13.866667h24.533333c-3.2 17.066667-7.466667 34.133333-7.466667 52.266667-7.466667 106.666667 86.4 196.266667 204.8 196.266667z m-136.533333 69.333333c21.333333 0 38.4-17.066667 38.4-38.4 0-20.266667-17.066667-38.4-38.4-38.4s-38.4 17.066667-38.4 38.4 18.133333 38.4 38.4 38.4z m-169.6-75.733333c-24.533333 0-38.4 17.066667-38.4 38.4 0 20.266667 17.066667 38.4 38.4 38.4s38.4-17.066667 38.4-38.4c-4.266667-21.333333-18.133333-38.4-38.4-38.4z m545.066667-198.4c0 97.066667-97.066667 176-209.066667 176-118.4 0-209.066667-80-209.066667-176s93.866667-176 209.066667-176c24.533333 0 49.066667 6.4 72.533333 13.866666l66.133334-38.4-17.066667 61.866667c49.066667 34.133333 87.466667 83.2 87.466667 138.666667z m-275.2 26.666666c-13.866667 0-27.733333 10.666667-27.733334 27.733334 0 13.866667 10.666667 27.733333 27.733334 27.733333s27.733333-10.666667 27.733333-27.733333c0-13.866667-13.866667-27.733333-27.733333-27.733334z m135.466666 0c-13.866667 0-27.733333 10.666667-27.733333 27.733334 0 13.866667 10.666667 27.733333 27.733333 27.733333 13.866667 0 27.733333-10.666667 27.733334-27.733333s-13.866667-27.733333-27.733334-27.733334z"  horiz-adv-x="1024" />

    
    <glyph glyph-name="tupian" unicode="&#58891;" d="M765.376 615.424c0 0 103.04 1.024 103.04-100.992 0 0 9.536-98.752-103.04-100.928 0 0-100.864-2.176-99.84 100.928C665.536 514.496 664.448 605.8879999999999 765.376 615.424zM968.32 770.56c0 0 54.208-4.224 54.208-52.032l0-712.832c0 0-3.2-51.008-54.208-52.096L968.32 770.56zM1.472 5.631999999999948c0 0 2.176-52.096 52.096-52.096L968.32-46.464000000000055l0 150.848-99.712 0-203.072 206.144-153.024-153.984L304.32 413.568l-205.056-307.072-45.632-1.024L52.48 718.4639999999999 1.472 718.4639999999999 1.472 5.631999999999948zM968.32 770.56L53.568 770.56c0 0-52.096 1.088-52.096-52.032L968.32 718.528 968.32 770.56z"  horiz-adv-x="1024" />

    
    <glyph glyph-name="shezhi" unicode="&#58921;" d="M519.9 248.6c-44.8-7.4-90.4 6.9-122.5 38.3-32.1 31.4-46.6 76.2-39 120 9.4 56.8 56.2 102.7 114.2 112.1 44.9 7.6 90.7-6.7 122.9-38.2 32.2-31.6 46.7-76.5 38.9-120.4-9.7-56.9-56.5-102.6-114.5-111.8M848.4 337l66 40.4c10.5 6.4 15.6 18.6 12.9 30.4L895 546.7c-2.7 11.8-12.8 20.6-25.1 21.9l-77.5 8.4c-7.7 0.8-14.7 4.6-19.5 10.5l-13 16c-4.8 5.9-7 13.5-6.1 21l8.9 75.7c1.4 12-5.1 23.6-16.2 28.9l-131 61.8c-11.1 5.2-24.4 3-33.2-5.5l-55-54c-5.4-5.3-12.8-8.4-20.6-8.4H486c-7.7 0-15.1 3-20.6 8.4l-55 54c-8.7 8.6-22 10.8-33.2 5.5l-130.9-61.8c-11.1-5.3-17.6-16.8-16.2-28.9l8.9-75.8c0.9-7.5-1.3-15-6.1-21L220 587.6c-4.8-5.9-11.8-9.7-19.5-10.5l-77.5-8.5c-12.3-1.3-22.3-10.1-25.1-21.9L65.5 407.9c-2.7-11.8 2.4-24 12.9-30.4l66-40.5c6.5-4 11.2-10.4 12.9-17.8l4.6-19.9c1.7-7.4 0.4-15.1-3.7-21.5l-41.6-64.5c-6.6-10.2-5.8-23.4 1.9-32.9l90.7-111.3c7.7-9.5 20.7-13.1 32.3-9.1l73.5 25.3c7.3 2.5 15.3 2.1 22.2-1.2l18.7-8.8c7-3.3 12.3-9.1 14.8-16.3l25.6-72c4.1-11.4 15.1-19.1 27.4-19.1H569c12.4 0 23.4 7.7 27.4 19.1l25.6 72c2.5 7.1 7.9 13 14.8 16.3l18.7 8.8c6.9 3.3 14.9 3.7 22.2 1.2l73.5-25.3c11.7-4 24.6-0.4 32.3 9.1l90.7 111.3c7.7 9.5 8.4 22.7 1.9 32.9l-41.6 64.5c-4.1 6.4-5.5 14.1-3.8 21.5l4.6 19.8c1.9 7.5 6.5 13.9 13.1 17.9"  horiz-adv-x="1024" />

    
    <glyph glyph-name="shenhe1" unicode="&#58900;" d="M182.857 822.857c-43.886 0-73.143-29.257-73.143-73.143v-731.428c0-43.886 29.257-73.143 73.143-73.143h658.286c43.886 0 73.143 29.257 73.143 73.143V749.714c0 43.886-29.257 73.143-73.143 73.143H182.857z m0 73.143h658.286C921.6 896 987.429 830.171 987.429 749.714v-731.428c0-80.457-65.829-146.286-146.286-146.286H182.857c-80.457 0-146.286 65.829-146.286 146.286V749.714C36.571 830.171 102.4 896 182.857 896zM109.714 676.571h804.572v-73.142H109.714zM438.857 179.2L256 362.057c-14.629 14.629-36.571 14.629-51.2 0-14.629-14.628-14.629-36.571 0-51.2l204.8-204.8c7.314-7.314 14.629-7.314 29.257-7.314 7.314 0 21.943 0 29.257 7.314l358.4 358.4c14.629 14.629 14.629 36.572 0 51.2-14.628 14.629-36.571 14.629-51.2 0L438.857 179.2z"  horiz-adv-x="1024" />

    
    <glyph glyph-name="renwu" unicode="&#59129;" d="M831.825 832.06H191.94c-70.692 0-128-57.308-128-128v-639.885c0-70.692 57.308-128 128-128h639.885c70.692 0 128 57.308 128 128V704.06c0 70.692-57.308 128-128 128zM895.885 64a63.835 63.835 0 0 0-63.973-63.886H192.088c-17.112 0-33.27 6.575-45.372 18.676S127.88 46.888 127.88 64V704a64.236 64.236 0 0 0 64.208 64.12h639.824A64.038 64.038 0 0 0 895.885 704v-640zM791.998 544.148H536a31.97 31.97 0 0 1 0-63.94h256a31.97 31.97 0 0 1 0 63.94z m0-256.121H536a31.97 31.97 0 0 1 0-63.94h256a31.97 31.97 0 0 1 0 63.94z m-447.996 79.975c-61.856 0-111.986-50.144-111.986-111.985S282.16 144.03 344.002 144.03s111.985 50.144 111.985 111.986-50.13 111.985-111.985 111.985z m33.982-145.982a48.045 48.045 0 1 0 14.088 33.982 47.746 47.746 0 0 0-14.088-33.986z m39.412 376.586L311.999 493.213l-41.391 41.395a31.97 31.97 0 1 1-45.213-45.213l63.997-64.002a31.97 31.97 0 0 1 45.214 0l128 128a31.97 31.97 0 0 1-45.21 45.213z"  horiz-adv-x="1024" />

    
    <glyph glyph-name="pingfenshezhi" unicode="&#58881;" d="M543.7667552 165.45564479999996l164.75022293-86.6076448a22.7555552 22.7555552 0 0 1 32.9955552 23.9843552l-31.49368853 183.40977813a68.26666667 68.26666667 0 0 0 19.6608 60.4387552l133.25653333 129.88871147a22.7555552 22.7555552 0 0 1-12.60657813 38.82097813l-184.18346667 26.76053334a68.26666667 68.26666667 0 0 0-51.4275552 37.3191104l-82.3296 166.8892448a22.7555552 22.7555552 0 0 1-40.77795626 0l-82.3751104-166.8892448a68.26666667 68.26666667 0 0 0-51.42755627-37.3191104l-184.1379552-26.76053334a22.7555552 22.7555552 0 0 1-12.60657813-38.82097813l133.25653333-129.88871147a68.26666667 68.26666667 0 0 0 19.6608-60.4387552l-31.49368853-183.40977813a22.7555552 22.7555552 0 0 1 33.04106666-23.9843552l164.70471147 86.6076448a68.26666667 68.26666667 0 0 0 63.5335104 0z m-207.0755552-126.88497813a68.26666667 68.26666667 0 0 0-99.03217813 71.95306666l31.44817813 183.40977814a22.7555552 22.7555552 0 0 1-6.5536 20.16142186l-133.25653333 129.88871147a68.26666667 68.26666667 0 0 0 37.8652448 116.41742187l184.1379552 26.76053333a22.7555552 22.7555552 0 0 1 17.11217813 12.4700448l82.3751104 166.84373333a68.26666667 68.26666667 0 0 0 122.4248896 0l82.3751104-166.84373333a22.7555552 22.7555552 0 0 1 17.11217813-12.4700448l184.1379552-26.76053333a68.26666667 68.26666667 0 0 0 37.8652448-116.41742187l-133.25653333-129.88871147a22.7555552 22.7555552 0 0 1-6.5536-20.16142186l31.44817813-183.40977814a68.26666667 68.26666667 0 0 0-99.03217813-71.9075552l-164.75022187 86.56213334a22.7555552 22.7555552 0 0 1-21.16266666 0L336.6912 38.57066667000004zM420.97777813 315.73333333000005l182.04444374 0 0-45.51111146-182.04444374 0 0 45.51111146Z"  horiz-adv-x="1024" />

    


  </font>
</defs>
</svg>
